<?xml version="1.0" encoding="UTF-8"?>
<svg width="800" height="450" viewBox="0 0 800 450" fill="none" xmlns="http://www.w3.org/2000/svg">
  <rect width="800" height="450" rx="10" fill="#4A6FA1" fill-opacity="0.1"/>
  <rect x="40" y="40" width="720" height="370" rx="8" fill="#FFFFFF"/>
  <rect x="60" y="60" width="200" height="160" rx="6" fill="#4A6FA1" fill-opacity="0.1"/>
  <rect x="280" y="60" width="200" height="160" rx="6" fill="#4A6FA1" fill-opacity="0.1"/>
  <rect x="500" y="60" width="240" height="160" rx="6" fill="#4A6FA1" fill-opacity="0.1"/>
  <rect x="60" y="240" width="440" height="150" rx="6" fill="#4A6FA1" fill-opacity="0.1"/>
  <rect x="520" y="240" width="220" height="150" rx="6" fill="#4A6FA1" fill-opacity="0.1"/>
  <path d="M80 140 L140 100 L200 120 L240 80" stroke="#4A6FA1" stroke-width="2" stroke-linecap="round"/>
  <path d="M300 140 L340 100 L380 130 L420 90 L460 110" stroke="#4A6FA1" stroke-width="2" stroke-linecap="round"/>
  <circle cx="140" cy="100" r="4" fill="#7EB4E2"/>
  <circle cx="200" cy="120" r="4" fill="#7EB4E2"/>
  <circle cx="340" cy="100" r="4" fill="#7EB4E2"/>
  <circle cx="380" cy="130" r="4" fill="#7EB4E2"/>
  <circle cx="420" cy="90" r="4" fill="#7EB4E2"/>
  <rect x="530" y="80" width="180" height="12" rx="2" fill="#4A6FA1" fill-opacity="0.2"/>
  <rect x="530" y="110" width="140" height="12" rx="2" fill="#4A6FA1" fill-opacity="0.2"/>
  <rect x="530" y="140" width="160" height="12" rx="2" fill="#4A6FA1" fill-opacity="0.2"/>
  <rect x="530" y="170" width="120" height="12" rx="2" fill="#4A6FA1" fill-opacity="0.2"/>
</svg> 